<?xml version="1.0" encoding="UTF-8" standalone="no"?><!DOCTYPE svg PUBLIC "-//W3C//DTD SVG 1.1//EN" "http://www.w3.org/Graphics/SVG/1.1/DTD/svg11.dtd"><svg width="100%" height="100%" viewBox="0 0 705 184" version="1.1" xmlns="http://www.w3.org/2000/svg" xmlns:xlink="http://www.w3.org/1999/xlink" xml:space="preserve" xmlns:serif="http://www.serif.com/" style="fill-rule:evenodd;clip-rule:evenodd;stroke-linejoin:round;stroke-miterlimit:2;"><rect id="Artboard6" x="-1494" y="-678" width="2273" height="1690" style="fill:none;"/><clipPath id="_clip1"><rect x="-1494" y="-678" width="2273" height="1690"/></clipPath><g clip-path="url(#_clip1)"><path d="M24.391,-760.781c308.709,149.317 -227.268,506.446 -511.912,557.672c-224.826,40.461 -779.579,-92.792 -1135.7,-0.667c-186.644,48.284 -298.602,-924.263 798.508,-703.487c290.978,58.555 622.052,36.662 849.101,146.482Z" style="fill:#ffdede;"/><g id="bluegold--curves-" serif:id="bluegold (curves)"><path d="M30.771,147.242c-3.295,0 -6.081,-1.135 -8.358,-3.405c-2.276,-2.27 -3.475,-4.955 -3.594,-8.055c0.239,-5.869 4.972,-10.907 14.199,-15.115c2.337,-1.052 7.13,-2.962 14.38,-5.73c0.779,-4.872 1.168,-9.744 1.168,-14.616c0,-8.582 -0.854,-16.139 -2.561,-22.672c-1.708,-6.533 -3.85,-9.799 -6.426,-9.799c-4.494,0 -8.508,4.29 -12.043,12.872c-2.756,6.81 -4.763,13.896 -6.021,21.26c-0.18,4.927 -0.27,9.882 -0.27,14.865c0,3.266 0.03,6.561 0.09,9.882c-0.06,1.052 -0.629,1.841 -1.708,2.367c-1.078,0.526 -2.321,0.886 -3.729,1.08c-1.408,0.194 -2.502,0.291 -3.28,0.291c-0.779,0 -1.798,-0.097 -3.056,-0.291c-1.258,-0.194 -2.397,-0.54 -3.415,-1.038c-1.019,-0.498 -1.618,-1.19 -1.798,-2.076c-1.378,-14.45 -2.067,-28.153 -2.067,-41.108c0,-7.198 0.405,-17.163 1.214,-29.897c0.808,-12.734 4.388,-30.091 10.739,-52.07c0.539,-1.218 1.408,-1.827 2.606,-1.827c3.835,0 7.595,0.609 11.279,1.827c3.685,1.218 6.905,3.072 9.661,5.564c0.6,0.498 0.899,1.079 0.899,1.744l-0.18,0.747c-6.65,19.765 -11.383,39.863 -14.199,60.292c1.558,-3.045 3.445,-5.758 5.662,-8.139c2.216,-2.38 4.793,-4.263 7.729,-5.647c2.935,-1.384 6.291,-2.076 10.065,-2.076c4.913,0 8.837,1.633 11.773,4.9c2.936,3.266 5.063,7.585 6.381,12.955c1.318,5.37 1.977,11.211 1.977,17.523c0,5.481 -0.419,10.519 -1.258,15.114c2.816,-1.273 5.602,-2.629 8.358,-4.069c12.942,-6.865 21.899,-15.142 26.872,-24.831c0.539,-0.996 1.378,-1.495 2.516,-1.495c0.359,0 0.749,0.083 1.168,0.25c1.139,0.498 1.708,1.273 1.708,2.325c0,0.332 -0.09,0.692 -0.27,1.079c-2.097,4.153 -4.793,7.973 -8.088,11.461c-6.051,6.311 -13.091,11.516 -21.12,15.613c-4.074,2.159 -8.238,4.152 -12.492,5.979c-2.037,7.585 -4.913,13.896 -8.628,18.935c-3.714,5.038 -7.848,8.802 -12.402,11.294c-4.553,2.491 -9.047,3.737 -13.481,3.737Zm-0.539,-5.232c1.858,0 3.715,-0.637 5.572,-1.91c4.614,-3.211 8.059,-9.578 10.335,-19.101l-2.606,0.997c-2.576,0.886 -5.302,1.993 -8.178,3.322c-2.876,1.328 -5.362,2.865 -7.459,4.609c-2.097,1.744 -3.146,3.778 -3.146,6.104c0,1.605 0.539,3.003 1.618,4.194c1.078,1.19 2.366,1.785 3.864,1.785Z" style="fill:#111;fill-rule:nonzero;"/><path d="M115.161,145.083c-2.637,0 -4.809,-0.623 -6.516,-1.869c-1.708,-1.245 -3.071,-2.851 -4.089,-4.816c-1.019,-1.966 -1.768,-4.139 -2.247,-6.52c-1.378,-6.865 -2.067,-14.865 -2.067,-24c0,-3.267 0.195,-9.177 0.584,-17.73c0.39,-8.554 1.498,-19.683 3.325,-33.385c1.828,-13.703 3.64,-25.454 5.437,-35.253c1.798,-9.8 2.996,-15.641 3.595,-17.523c0.42,-1.218 1.259,-1.827 2.517,-1.827c3.834,0 7.594,0.609 11.279,1.827c3.684,1.218 6.905,3.072 9.661,5.564c0.479,0.498 0.719,1.052 0.719,1.661l-0.09,0.498c-1.079,3.82 -3.131,13.592 -6.156,29.316c-3.026,15.723 -5.857,32.277 -8.493,49.661c-2.576,16.997 -3.865,29.842 -3.865,38.534c0,3.986 0.959,5.979 2.876,5.979c2.277,0 6.082,-3.072 11.414,-9.218c6.77,-7.806 13.331,-16.692 19.682,-26.658c6.351,-9.965 10.574,-17.052 12.671,-21.26c0.48,-0.996 1.289,-1.495 2.427,-1.495c0.359,0 0.749,0.083 1.168,0.25c1.079,0.498 1.618,1.273 1.618,2.325c0,1.55 -4.464,9.301 -13.391,23.253c-6.471,10.021 -13.51,19.516 -21.12,28.485c-2.756,3.322 -4.823,5.647 -6.201,6.976c-4.853,4.816 -9.766,7.225 -14.738,7.225Z" style="fill:#111;fill-rule:nonzero;"/><path d="M217.074,145.747c-2.935,0 -5.512,-0.775 -7.729,-2.325c-4.433,-2.934 -6.68,-10.99 -6.74,-24.167l0,-5.481c-1.737,3.101 -3.774,5.91 -6.111,8.429c-2.337,2.52 -4.973,4.526 -7.909,6.021c-2.936,1.495 -6.231,2.243 -9.886,2.243c-11.144,0 -16.716,-8.582 -16.716,-25.745c0,-6.699 0.899,-14.505 2.697,-23.419c3.714,-18.547 6.74,-27.821 9.077,-27.821c8.567,0 15.577,2.464 21.029,7.392c0.48,0.498 0.719,1.052 0.719,1.661c0,0.332 -0.479,1.827 -1.438,4.484c-3.115,8.415 -5.931,16.942 -8.448,25.578c-2.995,10.132 -4.493,17.745 -4.493,22.838c0,0.997 0.105,2.436 0.314,4.319c0.21,1.882 1.423,2.823 3.64,2.823c4.134,0 8.089,-3.322 11.863,-9.965c2.876,-5.094 5.078,-10.976 6.606,-17.648c1.528,-6.671 2.801,-12.526 3.819,-17.564c2.996,-15.945 5.602,-23.918 7.819,-23.918c8.568,0 15.578,2.464 21.03,7.392c0.479,0.498 0.719,1.052 0.719,1.661c0,0.11 -1.108,3.681 -3.325,10.713c-9.107,28.069 -13.661,46.644 -13.661,55.724c0,4.097 0.959,6.145 2.876,6.145c2.217,0 5.033,-1.633 8.448,-4.9c6.291,-6.034 13.541,-15.308 21.749,-27.82c7.01,-10.741 11.893,-18.852 14.649,-24.333c0.479,-0.996 1.288,-1.495 2.426,-1.495c0.36,0 0.749,0.083 1.169,0.25c1.138,0.498 1.707,1.301 1.707,2.408c0,1.439 -4.403,8.997 -13.211,22.672c-6.291,9.854 -13.181,19.294 -20.67,28.318c-1.738,2.104 -3.745,4.347 -6.022,6.727c-5.631,5.869 -10.964,8.803 -15.997,8.803Z" style="fill:#111;fill-rule:nonzero;"/><path d="M284.658,98.909c6.53,-0.886 11.563,-3.045 15.098,-6.478c5.332,-5.093 7.998,-11.211 7.998,-18.353c0,-5.647 -1.258,-8.471 -3.774,-8.471c-2.696,0 -5.348,1.661 -7.954,4.983c-2.606,3.322 -4.913,7.502 -6.92,12.54c-2.007,5.038 -3.49,10.298 -4.448,15.779Zm9.436,41.44c-5.692,0 -10.815,-1.73 -15.368,-5.19c-4.553,-3.461 -8.163,-8.388 -10.829,-14.783c-2.667,-6.394 -4,-13.993 -4,-22.796c0,-4.152 0.614,-8.761 1.843,-13.827c1.228,-5.066 3.07,-9.883 5.527,-14.45c2.456,-4.568 5.527,-8.346 9.212,-11.336c3.684,-2.99 7.953,-4.485 12.806,-4.485c5.033,0 9.137,1.163 12.312,3.488c5.393,3.987 8.089,9.717 8.089,17.191c0,1.163 -0.195,3.087 -0.584,5.772c-0.39,2.685 -1.768,5.938 -4.134,9.758c-2.367,3.82 -5.647,7.045 -9.841,9.675c-4.194,2.629 -9.287,4.221 -15.278,4.775c-0.18,2.048 -0.27,3.986 -0.27,5.813c0,5.813 0.989,10.935 2.966,15.364c2.336,5.37 5.752,8.055 10.245,8.055c3.775,0 7.849,-1.384 12.223,-4.152c8.028,-5.038 16.506,-13.26 25.433,-24.665c7.789,-9.966 13.601,-18.796 17.435,-26.492c0.479,-0.996 1.318,-1.495 2.517,-1.495c0.359,0 0.748,0.083 1.168,0.25c1.078,0.553 1.618,1.328 1.618,2.325c0,0.332 -0.09,0.692 -0.27,1.079c-4.194,8.637 -10.455,18.298 -18.783,28.984c-4.254,5.425 -8.703,10.477 -13.346,15.156c-4.643,4.678 -9.511,8.512 -14.604,11.502c-5.093,2.989 -10.455,4.484 -16.087,4.484Z" style="fill:#111;fill-rule:nonzero;"/><path d="M364.463,181.706c-3.774,0 -7.055,-0.789 -9.841,-2.367c-2.786,-1.577 -4.958,-3.64 -6.515,-6.187c-1.558,-2.546 -2.337,-5.259 -2.337,-8.138c0,-3.488 1.198,-6.838 3.595,-10.049c4.134,-5.702 10.844,-11.322 20.131,-16.858c4.074,-2.492 8.178,-4.872 12.312,-7.142c0.599,-3.101 1.139,-6.256 1.618,-9.467c-4.194,5.979 -9.976,8.969 -17.345,8.969c-4.194,0 -7.609,-1.578 -10.246,-4.734c-2.636,-3.156 -4.568,-7.253 -5.796,-12.291c-1.228,-5.038 -1.843,-10.381 -1.843,-16.028c0,-9.799 2.247,-18.492 6.741,-26.077c4.793,-8.193 11.084,-12.29 18.873,-12.29c6.351,0 11.893,2.408 16.626,7.225c0.599,-6.035 1.078,-9.689 1.438,-10.962c0.479,-1.219 1.318,-1.828 2.516,-1.828c8.568,0 15.578,2.464 21.03,7.392c0.479,0.498 0.719,1.052 0.719,1.661l-0.09,0.747c-2.037,6.976 -3.984,16.803 -5.841,29.481c-1.199,7.862 -2.607,16.111 -4.224,24.748c9.166,-5.259 17.09,-10.81 23.771,-16.65c6.68,-5.841 12.387,-13.44 17.12,-22.797c0.479,-0.996 1.288,-1.495 2.426,-1.495c0.42,0 0.839,0.083 1.259,0.25c1.078,0.553 1.617,1.328 1.617,2.325c0,0.332 -0.09,0.692 -0.269,1.079c-5.273,10.354 -11.684,18.714 -19.233,25.08c-8.028,6.81 -17.375,13.177 -28.039,19.101c-3.476,16.665 -8.059,29.897 -13.751,39.696c-6.83,11.738 -15.637,17.606 -26.422,17.606Zm4.763,-58.298c4.134,0 7.939,-3.184 11.414,-9.551c2.516,-4.706 4.583,-10.048 6.201,-16.028c0.959,-7.695 1.797,-14.699 2.516,-21.01c-0.838,-1.772 -2.037,-3.212 -3.594,-4.319c-1.558,-1.107 -3.086,-1.661 -4.584,-1.661c-2.636,0 -5.347,1.357 -8.133,4.069c-2.786,2.713 -5.138,6.921 -7.055,12.624c-1.917,5.702 -2.876,13.066 -2.876,22.09c0,2.159 0.225,4.291 0.674,6.394c0.449,2.104 1.123,3.862 2.022,5.274c0.899,1.412 2.037,2.118 3.415,2.118Zm-7.459,52.319c2.696,0 5.168,-1.689 7.414,-5.066c2.247,-3.377 4.299,-7.903 6.157,-13.578c1.857,-5.675 3.534,-12.056 5.032,-19.142l-2.786,1.661c-7.07,3.986 -12.612,7.612 -16.626,10.879c-6.111,4.983 -9.167,9.882 -9.167,14.699c0,2.713 0.884,5.149 2.651,7.308c1.768,2.159 4.209,3.239 7.325,3.239Z" style="fill:#111;fill-rule:nonzero;"/><path d="M487.766,104.224c2.217,-8.637 3.326,-17.44 3.326,-26.409c0,-5.315 -0.33,-10.256 -0.989,-14.824c-0.659,-4.567 -1.738,-8.249 -3.235,-11.045c-1.498,-2.796 -3.535,-4.194 -6.112,-4.194c-3.355,0 -5.976,0.997 -7.863,2.99c-1.888,1.993 -3.251,4.374 -4.089,7.142c-0.839,2.768 -1.289,5.453 -1.349,8.055c2.217,1.108 4.224,2.492 6.022,4.153c0.479,0.443 0.719,0.969 0.719,1.578c0,0.443 -0.599,2.353 -1.798,5.73c0.24,1.329 0.57,2.657 0.989,3.986c3.475,10.962 8.268,18.575 14.379,22.838Zm-17.974,26.243c-8.987,0 -15.458,-4.568 -19.412,-13.703c-3.176,-7.197 -4.763,-16.25 -4.763,-27.156c0,-7.53 1.468,-15.89 4.403,-25.08c0.42,-1.218 1.229,-1.827 2.427,-1.827c3.235,0 6.441,0.415 9.616,1.245c0.24,-3.488 1.034,-6.851 2.382,-10.09c1.348,-3.239 3.34,-5.924 5.976,-8.055c2.636,-2.132 6.081,-3.198 10.335,-3.198c3.595,0 6.591,0.886 8.988,2.658c7.249,5.37 10.874,16.803 10.874,34.298c0,10.575 -1.468,20.125 -4.404,28.651c1.738,0.388 3.475,0.581 5.213,0.581c6.95,0 14.619,-5.37 23.007,-16.111c3.055,-4.041 6.051,-8.913 8.987,-14.616c0.539,-0.996 1.378,-1.495 2.516,-1.495c0.36,0 0.749,0.083 1.169,0.25c1.078,0.498 1.617,1.273 1.617,2.325c0,0.332 -0.09,0.692 -0.269,1.079c-2.996,5.814 -6.171,10.88 -9.527,15.198c-10.065,12.125 -19.112,18.187 -27.141,18.187c-2.456,0 -4.913,-0.304 -7.369,-0.913c-1.498,3.377 -3.37,6.394 -5.617,9.052c-2.247,2.657 -4.943,4.775 -8.089,6.353c-3.145,1.578 -6.785,2.367 -10.919,2.367Zm5.752,-7.475c4.134,-0.221 7.699,-4.789 10.695,-13.702c-7.909,-4.651 -13.721,-12.291 -17.435,-22.921c-1.618,4.595 -2.427,9.744 -2.427,15.447c0,7.474 0.869,12.872 2.606,16.194c1.738,3.321 3.835,4.982 6.291,4.982l0.27,0Z" style="fill:#111;fill-rule:nonzero;"/><path d="M546.722,145.083c-2.636,0 -4.808,-0.623 -6.516,-1.869c-1.707,-1.245 -3.07,-2.851 -4.089,-4.816c-1.019,-1.966 -1.767,-4.139 -2.247,-6.52c-1.378,-6.865 -2.067,-14.865 -2.067,-24c0,-3.267 0.195,-9.177 0.584,-17.73c0.39,-8.554 1.498,-19.683 3.326,-33.385c1.827,-13.703 3.639,-25.454 5.437,-35.253c1.797,-9.8 2.996,-15.641 3.595,-17.523c0.419,-1.218 1.258,-1.827 2.516,-1.827c3.835,0 7.594,0.609 11.279,1.827c3.685,1.218 6.905,3.072 9.661,5.564c0.479,0.498 0.719,1.052 0.719,1.661l-0.09,0.498c-1.078,3.82 -3.13,13.592 -6.156,29.316c-3.026,15.723 -5.857,32.277 -8.493,49.661c-2.576,16.997 -3.864,29.842 -3.864,38.534c0,3.986 0.958,5.979 2.876,5.979c2.276,0 6.081,-3.072 11.413,-9.218c6.77,-7.806 13.331,-16.692 19.682,-26.658c6.351,-9.965 10.575,-17.052 12.672,-21.26c0.479,-0.996 1.288,-1.495 2.426,-1.495c0.36,0 0.749,0.083 1.169,0.25c1.078,0.498 1.617,1.273 1.617,2.325c0,1.55 -4.463,9.301 -13.39,23.253c-6.471,10.021 -13.511,19.516 -21.12,28.485c-2.756,3.322 -4.823,5.647 -6.201,6.976c-4.853,4.816 -9.766,7.225 -14.739,7.225Z" style="fill:#111;fill-rule:nonzero;"/><path d="M614.305,123.408c4.493,0 8.568,-3.682 12.222,-11.046c2.637,-5.259 4.644,-10.851 6.022,-16.775l0.09,-0.083c0.299,-6.422 0.749,-12.955 1.348,-19.599c-0.839,-1.55 -1.992,-2.782 -3.46,-3.696c-1.468,-0.913 -2.861,-1.37 -4.179,-1.37c-2.637,0 -5.363,1.357 -8.179,4.069c-2.816,2.713 -5.182,6.921 -7.099,12.624c-1.918,5.702 -2.876,13.066 -2.876,22.09c0,2.159 0.224,4.291 0.674,6.394c0.449,2.104 1.123,3.862 2.022,5.274c0.899,1.412 2.037,2.118 3.415,2.118Zm32.354,21.509c-2.577,0 -4.943,-0.969 -7.1,-2.907c-4.194,-3.709 -6.561,-12.844 -7.1,-27.405c-1.258,2.879 -2.816,5.522 -4.673,7.931c-1.858,2.408 -4.149,4.332 -6.876,5.771c-2.726,1.44 -5.976,2.16 -9.751,2.16c-4.194,0 -7.594,-1.578 -10.2,-4.734c-2.606,-3.156 -4.523,-7.253 -5.752,-12.291c-1.228,-5.038 -1.842,-10.381 -1.842,-16.028c0,-9.91 2.217,-18.602 6.65,-26.077c4.794,-8.193 11.085,-12.29 18.873,-12.29c6.112,0 11.504,2.242 16.177,6.726c1.858,-15.668 3.85,-29.343 5.977,-41.025c2.127,-11.681 3.52,-18.602 4.179,-20.761c0.479,-1.218 1.318,-1.827 2.516,-1.827c8.448,0 15.458,2.463 21.03,7.391c0.479,0.498 0.719,1.052 0.719,1.661l-0.09,0.83c-0.779,2.436 -2.067,8.083 -3.865,16.942c-4.853,23.253 -8.747,45.232 -11.683,65.939c-2.157,14.893 -3.235,25.827 -3.235,32.803c0,4.927 0.659,7.391 1.977,7.391c2.277,0 5.123,-1.633 8.538,-4.9c6.171,-5.979 13.391,-15.252 21.659,-27.82c6.95,-10.575 11.833,-18.686 14.649,-24.333c0.479,-0.996 1.318,-1.495 2.516,-1.495c0.36,0 0.749,0.083 1.168,0.25c1.079,0.498 1.618,1.273 1.618,2.325c0,1.605 -4.673,9.633 -14.02,24.083c-6.77,10.464 -14.05,20.236 -21.838,29.316c-7.19,8.249 -13.93,12.374 -20.221,12.374Z" style="fill:#111;fill-rule:nonzero;"/></g></g></svg>