<?xml version="1.0" standalone="no"?>
<!DOCTYPE svg PUBLIC "-//W3C//DTD SVG 20010904//EN"
 "http://www.w3.org/TR/2001/REC-SVG-20010904/DTD/svg10.dtd">
<svg version="1.0" xmlns="http://www.w3.org/2000/svg"
 width="968.000000pt" height="968.000000pt" viewBox="0 0 968.000000 968.000000"
 preserveAspectRatio="xMidYMid meet">
<metadata>
Created by potrace 1.11, written by Peter Selinger 2001-2013
</metadata>
<g transform="translate(0.000000,968.000000) scale(0.100000,-0.100000)"
fill="#000000" stroke="none">
<path d="M3598 9375 c-2 -2 -54 -6 -117 -9 -62 -4 -117 -9 -122 -12 -5 -3 -9
0 -9 7 0 8 -4 8 -12 2 -7 -6 -20 -11 -28 -11 -33 -2 -138 -12 -180 -17 -25 -3
-58 -8 -75 -10 -16 -2 -46 -6 -65 -9 -19 -3 -51 -7 -70 -10 -19 -3 -60 -10
-90 -16 -30 -6 -72 -13 -93 -15 -22 -3 -42 -7 -46 -9 -3 -2 -26 -7 -51 -11
-25 -4 -49 -9 -54 -13 -6 -3 -20 -7 -31 -8 -12 -1 -41 -8 -66 -14 -24 -7 -48
-13 -54 -15 -44 -10 -85 -21 -185 -52 -63 -20 -121 -36 -127 -36 -7 0 -13 -5
-13 -10 0 -5 -7 -7 -15 -3 -8 3 -15 2 -15 -3 0 -5 -16 -12 -35 -15 -19 -4 -47
-13 -62 -21 -15 -8 -32 -15 -36 -15 -5 0 -23 -6 -40 -14 -18 -8 -81 -36 -142
-62 -60 -27 -113 -52 -116 -57 -3 -5 -9 -8 -13 -7 -3 0 -38 -16 -76 -36 -38
-20 -72 -35 -76 -34 -4 1 -10 -3 -13 -8 -3 -5 -28 -22 -56 -38 -115 -68 -158
-96 -305 -201 -13 -10 -31 -25 -40 -33 -8 -8 -31 -26 -50 -40 -59 -42 -249
-224 -335 -321 -50 -56 -155 -190 -155 -197 0 -4 -10 -18 -23 -32 -27 -30
-147 -224 -147 -238 0 -6 -3 -12 -7 -14 -12 -5 -65 -108 -56 -108 4 0 3 -4 -2
-8 -6 -4 -23 -36 -39 -72 -15 -36 -36 -82 -46 -103 -11 -21 -15 -35 -9 -31 6
3 3 -5 -6 -19 -9 -14 -18 -32 -19 -39 -1 -7 -17 -58 -35 -114 -17 -55 -34
-111 -37 -125 -3 -13 -10 -40 -14 -59 -13 -52 -30 -131 -36 -169 -3 -18 -8
-43 -10 -55 -2 -11 -7 -41 -10 -66 -3 -25 -7 -56 -9 -70 -26 -176 -26 -905 0
-1040 2 -14 7 -65 9 -115 3 -49 8 -106 10 -125 3 -19 8 -64 11 -100 3 -36 7
-81 10 -100 7 -53 14 -115 20 -162 3 -24 8 -61 11 -83 4 -22 8 -56 11 -75 5
-44 10 -75 12 -75 3 0 10 -72 11 -104 0 -12 3 -28 7 -33 3 -6 7 -25 9 -42 4
-41 12 -95 18 -126 15 -67 28 -138 31 -165 1 -16 4 -30 5 -30 1 0 4 -13 6 -30
3 -16 18 -93 34 -170 16 -77 31 -151 34 -165 3 -14 7 -34 10 -45 36 -153 47
-202 51 -219 2 -12 4 -21 6 -21 1 0 3 -9 5 -20 4 -26 12 -60 14 -60 1 0 3 -7
5 -15 1 -8 10 -42 19 -75 20 -70 28 -104 30 -125 0 -8 4 -17 8 -20 4 -3 9 -19
12 -35 2 -17 5 -30 6 -30 1 0 3 -7 5 -16 3 -18 48 -163 102 -334 19 -60 55
-166 79 -234 24 -68 44 -130 44 -137 0 -8 4 -14 9 -14 4 0 14 -21 22 -48 7
-26 19 -58 26 -72 7 -14 13 -31 13 -37 0 -7 4 -13 8 -13 4 0 8 -8 9 -18 1 -9
17 -52 37 -95 19 -43 35 -78 35 -80 -1 -3 49 -113 99 -217 25 -52 45 -98 44
-102 -1 -5 2 -8 8 -8 5 0 10 -5 10 -11 0 -9 48 -99 142 -268 11 -19 36 -60 56
-90 20 -31 36 -58 37 -61 1 -9 98 -149 170 -244 91 -122 133 -171 231 -277 85
-91 264 -249 283 -249 6 0 11 -4 11 -9 0 -5 17 -20 37 -33 20 -12 44 -28 52
-33 81 -53 116 -73 192 -111 77 -39 233 -100 282 -109 9 -2 21 -6 26 -10 6 -3
29 -8 53 -11 24 -3 50 -7 58 -10 44 -15 168 -19 560 -18 482 1 760 6 760 14 0
3 33 5 73 6 82 1 316 15 472 29 28 2 81 7 118 10 70 5 113 10 182 19 22 3 63
8 90 11 56 5 100 11 160 20 22 3 60 8 85 10 25 3 56 7 70 10 14 3 39 7 55 9
17 3 68 12 115 20 47 8 101 17 120 21 59 10 179 35 300 62 63 14 121 26 128
26 6 0 12 3 12 7 0 3 8 6 18 6 24 1 55 9 137 34 39 12 84 25 100 30 17 4 75
22 130 41 55 18 103 32 108 31 4 -1 7 3 7 9 0 5 4 8 8 5 4 -2 21 1 37 8 17 8
49 21 73 30 80 31 127 50 132 56 3 3 12 6 20 8 27 6 275 133 278 143 2 5 9 9
15 9 15 0 177 103 177 112 0 5 6 8 13 8 7 0 22 8 33 18 10 9 39 33 64 52 40
31 79 64 114 95 6 6 45 39 86 75 41 36 80 70 86 75 6 6 33 29 61 53 28 24 66
57 85 75 19 18 70 64 113 102 366 328 709 671 955 955 30 35 62 70 70 79 8 9
31 37 50 61 19 25 37 47 41 50 11 9 190 253 239 325 136 202 268 451 338 635
29 77 35 94 36 102 1 3 4 10 9 14 4 4 7 13 7 20 0 7 5 25 12 41 6 15 11 31 10
34 -1 4 3 22 9 40 17 53 39 150 45 194 2 22 7 47 11 55 3 8 7 29 8 45 1 17 3
30 4 30 14 0 20 438 8 545 -14 114 -75 378 -104 450 -3 8 -7 21 -9 29 -7 36
-70 188 -132 321 -25 52 -46 101 -48 108 -1 7 -7 19 -14 27 -6 7 -23 37 -39
67 -15 29 -42 77 -59 106 -18 29 -32 57 -32 62 0 6 -3 10 -8 10 -7 0 -13 9
-42 66 -8 16 -23 38 -32 48 -10 11 -18 26 -18 33 0 7 -4 13 -8 13 -5 0 -15 12
-23 27 -8 15 -19 35 -26 43 -7 8 -44 60 -82 114 -39 55 -82 112 -96 128 -14
15 -25 30 -25 33 0 3 -6 13 -14 22 -8 10 -31 38 -51 63 -74 92 -120 146 -151
178 -18 17 -30 32 -28 32 3 0 -5 11 -18 24 -13 13 -57 61 -98 107 -135 149
-433 441 -556 545 -32 27 -67 58 -79 69 -11 11 -43 38 -69 60 -27 22 -57 47
-65 55 -14 13 -56 47 -204 163 -15 12 -33 27 -40 32 -40 33 -246 184 -264 193
-12 7 -27 18 -35 25 -26 26 -373 254 -533 350 -10 7 -37 23 -60 37 -22 13 -43
24 -47 25 -4 0 -13 6 -20 13 -6 6 -18 12 -25 12 -7 0 -13 3 -13 8 0 4 -17 15
-37 25 -21 10 -67 34 -103 54 -84 46 -352 181 -455 228 -357 165 -889 349
-1102 382 -18 3 -33 9 -33 15 0 5 -4 7 -8 4 -5 -3 -35 1 -68 9 -32 7 -77 16
-99 19 -23 4 -52 9 -65 12 -14 3 -41 7 -60 9 -19 2 -35 4 -35 5 0 1 -13 4 -30
5 -16 2 -55 6 -85 10 -30 4 -75 9 -100 12 -52 5 -617 12 -622 8z"/>
</g>
</svg>
